HIERARCHY
ROOT Hips
{
	OFFSET 0.000000 0.000000 0.000000
	CHANNELS 6 Xposition Yposition Zposition Zrotation Yrotation Xrotation 
	JOINT LHipJoint
	{
		OFFSET 0.000000 0.000000 0.000000
		CHANNELS 3 Zrotation Yrotation Xrotation
		JOINT LeftUpLeg
		{
			OFFSET 1.363060 -1.794630 0.839290
			CHANNELS 3 Zrotation Yrotation Xrotation
			JOINT LeftLeg
			{
				OFFSET 2.448110 -6.726130 0.000000
				CHANNELS 3 Zrotation Yrotation Xrotation
				JOINT LeftFoot
				{
					OFFSET 2.562200 -7.039590 0.000000
					CHANNELS 3 Zrotation Yrotation Xrotation
					JOINT LeftToeBase
					{
						OFFSET 0.157640 -0.433110 2.322550
						CHANNELS 3 Zrotation Yrotation Xrotation
						End Site
						{
							OFFSET 0.000000 0.000000 0.000000
						}
					}
				}
			}
		}
	}
	JOINT RHipJoint
	{
		OFFSET 0.000000 0.000000 0.000000
		CHANNELS 3 Zrotation Yrotation Xrotation
		JOINT RightUpLeg
		{
			OFFSET -1.305520 -1.794630 0.839290
			CHANNELS 3 Zrotation Yrotation Xrotation
			JOINT RightLeg
			{
				OFFSET -2.542530 -6.985550 0.000000
				CHANNELS 3 Zrotation Yrotation Xrotation
				JOINT RightFoot
				{
					OFFSET -2.568260 -7.056230 0.000000
					CHANNELS 3 Zrotation Yrotation Xrotation
					JOINT RightToeBase
					{
						OFFSET -0.164730 -0.452590 2.363150
						CHANNELS 3 Zrotation Yrotation Xrotation
						End Site
						{
							OFFSET 0.000000 0.000000 0.000000
						}
					}
				}
			}
		}
	}
	JOINT LowerBack
	{
		OFFSET 0.000000 0.000000 0.000000
		CHANNELS 3 Zrotation Yrotation Xrotation
		JOINT Spine
		{
			OFFSET 0.028270 2.035590 -0.193380
			CHANNELS 3 Zrotation Yrotation Xrotation
			JOINT Spine1
			{
				OFFSET 0.056720 2.048850 -0.042750
				CHANNELS 3 Zrotation Yrotation Xrotation
				JOINT Neck
				{
					OFFSET 0.000000 0.000000 0.000000
					CHANNELS 3 Zrotation Yrotation Xrotation
					JOINT Neck1
					{
						OFFSET -0.054170 1.746240 0.172020
						CHANNELS 3 Zrotation Yrotation Xrotation
						JOINT Head
						{
							OFFSET 0.104070 1.761360 -0.123970
							CHANNELS 3 Zrotation Yrotation Xrotation
							End Site
							{
								OFFSET 0.000000 0.000000 0.000000
							}
						}
					}
				}
				JOINT LeftShoulder
				{
					OFFSET 0.000000 0.000000 0.000000
					CHANNELS 3 Zrotation Yrotation Xrotation
					JOINT LeftArm
					{
						OFFSET 3.362410 1.200890 -0.311210
						CHANNELS 3 Zrotation Yrotation Xrotation
						JOINT LeftForeArm
						{
							OFFSET 4.983000 -0.000000 -0.000000
							CHANNELS 3 Zrotation Yrotation Xrotation
							JOINT LeftHand
							{
								OFFSET 3.483560 -0.000000 -0.000000
								CHANNELS 3 Zrotation Yrotation Xrotation
								JOINT LeftFingerBase
								{
									OFFSET 0.000000 0.000000 0.000000
									CHANNELS 3 Zrotation Yrotation Xrotation
									JOINT LeftHandIndex1
									{
										OFFSET 0.715260 -0.000000 -0.000000
										CHANNELS 3 Zrotation Yrotation Xrotation
										End Site
										{
											OFFSET 0.000000 0.000000 0.000000
										}
									}
								}
								JOINT LThumb
								{
									OFFSET 0.000000 0.000000 0.000000
									CHANNELS 3 Zrotation Yrotation Xrotation
									End Site
									{
										OFFSET 0.000000 0.000000 0.000000
									}
								}
							}
						}
					}
				}
				JOINT RightShoulder
				{
					OFFSET 0.000000 0.000000 0.000000
					CHANNELS 3 Zrotation Yrotation Xrotation
					JOINT RightArm
					{
						OFFSET -3.136600 1.374050 -0.404650
						CHANNELS 3 Zrotation Yrotation Xrotation
						JOINT RightForeArm
						{
							OFFSET -5.241900 -0.000000 -0.000000
							CHANNELS 3 Zrotation Yrotation Xrotation
							JOINT RightHand
							{
								OFFSET -3.444170 -0.000000 -0.000000
								CHANNELS 3 Zrotation Yrotation Xrotation
								JOINT RightFingerBase
								{
									OFFSET 0.000000 0.000000 0.000000
									CHANNELS 3 Zrotation Yrotation Xrotation
									JOINT RightHandIndex1
									{
										OFFSET -0.622530 -0.000000 -0.000000
										CHANNELS 3 Zrotation Yrotation Xrotation
										End Site
										{
											OFFSET 0.000000 0.000000 0.000000
										}
									}
								}
								JOINT RThumb
								{
									OFFSET 0.000000 0.000000 0.000000
									CHANNELS 3 Zrotation Yrotation Xrotation
									End Site
									{
										OFFSET 0.000000 0.000000 0.000000
									}
								}
							}
						}
					}
				}
			}
		}
	}
}
MOTION
Frames: 12
Frame Time: 0.033333
-1.681946 17.296361 23.789557 -0.843823 -14.504989 13.472468 -6.576661 3.975327 11.234447 -8.707070 -24.772587 -14.068711 37.386650 -28.183453 -29.179523 -17.014484 -1.900519 76.947399 0.000000 0.000000 0.000000 8.877357 -12.093660 -3.601700 17.546467 20.111102 -16.848867 -12.566260 -12.145192 70.358517 11.457378 -5.076249 -16.286348 0.000000 0.000000 0.000000 -3.776289 3.930688 3.839205 -1.605252 2.991321 1.444957 6.358003 2.776841 -6.292919 5.331706 0.696418 -7.348718 2.686039 0.697692 -7.739814 0.000000 0.000000 0.000000 -2.468454 9.271943 17.824609 -80.816379 -5.134713 -23.122773 -145.204733 -73.695783 179.085129 10.010810 -8.750438 -0.472870 10.150924 -8.667775 0.000000 0.000000 0.000000 0.000000 0.000000 0.000000 0.000000 4.196082 -12.988940 5.527338 52.190233 7.103028 21.750031 23.657011 71.526119 0.440170 0.389813 11.293298 0.218381 0.382179 11.299697 0.000000 0.000000 0.000000 0.000000 0.000000 0.000000 0.000000 
-1.701894 17.317925 23.981655 -0.206581 -13.933897 12.965682 -4.705242 3.519469 10.163106 -12.503054 -25.207740 -11.616173 36.753058 -28.589927 -27.389834 -15.988921 -3.383974 73.455746 0.000000 0.000000 0.000000 8.148347 -10.769894 -3.968662 16.845632 18.442473 -15.247942 -11.555643 -13.457860 69.056782 11.375604 -5.575900 -15.464629 0.000000 0.000000 0.000000 -4.330957 3.728499 4.616326 -1.624278 2.741152 0.763686 6.034365 2.515565 -5.521658 5.427044 0.631572 -7.241395 2.639682 0.637274 -6.887344 0.000000 0.000000 0.000000 -1.859192 8.874411 17.949133 -81.227033 -5.013947 -22.275787 -145.237260 -74.510590 179.047673 10.577331 -9.332615 -0.492900 10.729969 -9.241359 0.000000 0.000000 0.000000 0.000000 0.000000 0.000000 0.000000 3.053606 -12.998462 5.345460 54.075263 7.732757 20.834520 26.046631 70.224905 0.405097 0.562387 10.899139 0.201096 0.555757 10.905084 0.000000 0.000000 0.000000 0.000000 0.000000 0.000000 0.000000 
-1.720387 17.341871 24.171549 0.387520 -13.354664 12.464740 -3.078792 3.151281 9.112630 -15.935230 -25.351187 -9.386042 35.698537 -28.846972 -25.504114 -14.732932 -4.567895 70.030914 0.000000 0.000000 0.000000 7.550238 -9.455320 -4.247128 16.001811 16.762252 -13.687195 -10.462376 -14.714548 67.621743 11.219062 -5.979285 -14.607683 0.000000 0.000000 0.000000 -4.815856 3.481310 5.338144 -1.557569 2.455289 0.124025 5.626506 2.244811 -4.793416 5.480687 0.440976 -7.099223 2.175278 0.471744 -5.070121 0.000000 0.000000 0.000000 -1.369468 8.578363 18.049745 -81.552490 -4.798306 -21.346118 -145.262600 -75.437974 179.013815 11.142338 -9.939598 -0.511263 11.308448 -9.838848 0.000000 0.000000 0.000000 0.000000 0.000000 0.000000 0.000000 1.981536 -12.969925 5.180869 55.843109 8.376758 19.859737 28.442167 68.829636 0.363355 0.691845 10.390309 0.180470 0.685872 10.395651 0.000000 0.000000 0.000000 0.000000 0.000000 0.000000 0.000000 
-1.736212 17.367681 24.358510 0.938974 -12.753102 11.990144 -1.713956 2.871055 8.109148 -18.938221 -25.250374 -7.436352 34.260626 -28.932084 -23.571243 -13.351081 -5.436715 66.750711 0.000000 0.000000 0.000000 7.094218 -8.199101 -4.415471 15.015180 15.110854 -12.219556 -9.300103 -15.891347 66.084729 10.998488 -6.285544 -13.729536 0.000000 0.000000 0.000000 -5.225618 3.248524 5.968143 -1.485752 2.178702 -0.291747 5.211382 1.994253 -4.318253 5.586373 0.328315 -6.992807 1.927195 0.378043 -3.907750 0.000000 0.000000 0.000000 -0.993727 8.329855 18.129510 -81.803483 -4.466204 -20.226104 -145.352832 -76.487854 178.988557 11.680258 -10.571642 -0.525424 11.860448 -10.460782 0.000000 0.000000 0.000000 0.000000 0.000000 0.000000 0.000000 0.977973 -13.080651 4.984619 57.442385 8.998527 18.864269 30.961672 67.320243 0.317182 0.795110 9.760546 0.157621 0.789632 9.765219 0.000000 0.000000 0.000000 0.000000 0.000000 0.000000 0.000000 
-1.749373 17.394828 24.541845 1.444849 -12.153638 11.570431 -0.618161 2.679065 7.186623 -21.464708 -24.977158 -5.821802 32.526918 -28.836202 -21.614660 -11.941645 -6.025414 63.632493 0.000000 0.000000 0.000000 6.785635 -7.027696 -4.460320 13.893070 13.534246 -10.891990 -8.077684 -16.967575 64.480100 10.725294 -6.493655 -12.852512 0.000000 0.000000 0.000000 -5.563519 3.031967 6.479901 -1.420351 1.916064 -0.517818 4.803634 1.766343 -4.074831 5.760703 0.285957 -6.904540 1.865476 0.340520 -3.359459 0.000000 0.000000 0.000000 -0.740046 8.120558 18.191796 -81.982208 -4.014699 -18.923246 -145.519413 -77.669991 178.972843 12.185517 -11.229590 -0.534926 12.380417 -11.108017 0.000000 0.000000 0.000000 0.000000 0.000000 0.000000 0.000000 0.050290 -13.315685 4.764503 58.862394 9.594439 17.835447 33.581887 65.679069 0.267074 0.860492 8.996274 0.132786 0.855360 9.000233 0.000000 0.000000 0.000000 0.000000 0.000000 0.000000 0.000000 
-1.759255 17.423043 24.721174 2.055989 -11.590480 10.991114 0.565569 2.509759 5.845819 -24.486797 -24.119707 -3.676575 30.566202 -28.469963 -19.836930 -10.521924 -5.997176 61.379667 0.000000 0.000000 0.000000 6.542229 -5.832696 -4.260125 12.378841 11.825265 -9.533341 -6.556002 -18.054015 62.548752 10.167917 -6.264156 -12.267335 0.000000 0.000000 0.000000 -5.971317 2.821619 7.066896 -1.348002 1.651963 -0.637798 4.345011 1.551560 -3.979918 5.989238 0.268556 -6.767974 1.856375 0.319424 -3.012313 0.000000 0.000000 0.000000 -0.570882 7.939790 18.207782 -82.096396 -3.380620 -16.992541 -145.981638 -79.423499 178.784864 13.527472 -12.409362 -0.636563 13.778321 -12.249818 0.000000 0.000000 0.000000 0.000000 0.000000 0.000000 0.000000 -0.886369 -13.642691 4.504292 60.236504 10.259412 16.498305 36.625766 63.402634 0.215465 0.909208 8.169999 0.107171 0.904300 8.173270 0.000000 0.000000 0.000000 0.000000 0.000000 0.000000 0.000000 
-1.765240 17.451916 24.896484 2.757437 -11.114905 10.270191 1.795479 2.349161 4.081765 -27.825156 -22.637493 -1.056744 28.480241 -27.842531 -18.287686 -9.155547 -5.362118 60.117215 0.000000 0.000000 0.000000 6.405313 -4.641313 -3.765732 10.459342 10.049181 -8.180720 -4.719347 -19.094206 60.298242 9.353731 -5.616975 -11.975518 0.000000 0.000000 0.000000 -6.449988 2.627787 7.709713 -1.273305 1.397744 -0.656715 3.840000 1.362544 -4.050429 6.276493 0.276125 -6.565707 1.900855 0.314177 -2.867133 0.000000 0.000000 0.000000 -0.480815 7.797408 18.165678 -82.142812 -2.552947 -14.412700 -146.864243 -81.815912 178.421212 15.679394 -14.207841 -0.836210 16.046025 -13.968891 0.000000 0.000000 0.000000 0.000000 0.000000 0.000000 0.000000 -1.834451 -14.067427 4.187688 61.533474 11.031465 14.756992 40.051665 60.257802 0.161326 0.916482 7.253293 0.080260 0.911684 7.255901 0.000000 0.000000 0.000000 0.000000 0.000000 0.000000 0.000000 
-1.767790 17.481113 25.067284 3.275764 -10.691880 9.747171 2.577749 2.299417 2.797252 -30.012591 -21.387874 0.662672 26.365943 -27.118719 -16.713957 -7.926516 -4.804784 58.658637 0.000000 0.000000 0.000000 6.385890 -3.631155 -3.371978 8.926512 8.591203 -6.959695 -3.244238 -19.849154 58.356134 8.820614 -5.405636 -11.231690 0.000000 0.000000 0.000000 -6.747470 2.400646 8.152952 -1.192760 1.122090 -0.585113 3.172404 1.171969 -4.335636 6.733047 0.300349 -6.308816 2.027550 0.326271 -2.905169 0.000000 0.000000 0.000000 -0.351054 7.846809 18.125634 -82.087167 -1.659806 -12.095867 -147.720949 -84.027088 178.223719 17.074827 -15.701380 -0.950686 17.535875 -15.395926 0.000000 0.000000 0.000000 0.000000 0.000000 0.000000 0.000000 -3.153156 -14.782518 3.611055 63.040613 12.428288 11.511588 44.773174 53.618642 0.094352 0.900964 6.279787 0.046901 0.895944 6.281749 0.000000 0.000000 0.000000 0.000000 0.000000 0.000000 0.000000 
-1.767207 17.510387 25.233759 3.616024 -10.302381 9.429117 2.957643 2.350205 2.038502 -31.201224 -20.497757 1.522206 24.289924 -26.335739 -15.106759 -6.838522 -4.429204 56.836666 0.000000 0.000000 0.000000 6.431858 -2.781962 -3.137356 7.818893 7.423271 -5.869920 -2.172877 -20.373550 56.765526 8.554177 -5.619169 -10.060183 0.000000 0.000000 0.000000 -6.861867 2.122114 8.406339 -1.117104 0.805520 -0.424877 2.350290 0.960800 -5.048575 7.376526 0.340884 -5.852209 2.239764 0.355796 -3.110884 0.000000 0.000000 0.000000 -0.172359 8.115221 18.194753 -81.922697 -0.602040 -10.073233 -148.478466 -86.007512 178.199435 17.728241 -16.811176 -0.972054 18.243725 -16.466733 0.000000 0.000000 0.000000 0.000000 0.000000 0.000000 0.000000 -4.859686 -15.986003 2.340711 64.498826 14.865739 6.817337 49.578837 41.343629 0.015104 0.723104 5.021895 0.007396 0.718218 5.023234 0.000000 0.000000 0.000000 0.000000 0.000000 0.000000 0.000000 
-1.764633 17.539200 25.395586 3.915090 -9.997480 9.168480 3.235583 2.452002 1.356274 -32.144957 -19.623183 2.185105 22.250661 -25.459624 -13.542023 -5.842470 -3.985808 55.158182 0.000000 0.000000 0.000000 6.506731 -2.099387 -2.868231 6.847756 6.450649 -4.954652 -1.332267 -20.742558 55.376673 8.307838 -5.895250 -8.737467 0.000000 0.000000 0.000000 -6.949279 1.913573 8.598155 -1.094354 0.557881 -0.244747 1.699300 0.796023 -6.132656 7.988261 0.434345 -5.139666 2.567356 0.422980 -3.767941 0.000000 0.000000 0.000000 -0.043273 8.254963 18.527917 -81.793330 0.594546 -8.480559 -149.015072 -87.658473 178.530989 16.853462 -17.016762 -0.795240 17.310752 -16.712513 0.000000 0.000000 0.000000 0.000000 0.000000 0.000000 0.000000 -6.290646 -17.386013 0.337701 65.454514 17.610768 3.707347 52.157892 27.771161 -0.026786 0.463294 3.674650 -0.013458 0.459970 3.675539 0.000000 0.000000 0.000000 0.000000 0.000000 0.000000 0.000000 
-1.760446 17.567459 25.552975 4.178163 -9.759796 8.957588 3.412105 2.587809 0.765749 -32.858545 -18.793693 2.663326 20.284366 -24.517803 -12.023799 -4.939834 -3.511789 53.596704 0.000000 0.000000 0.000000 6.594399 -1.584774 -2.570351 6.019211 5.661793 -4.220996 -0.730810 -20.984482 54.204686 8.076891 -6.231055 -7.272281 0.000000 0.000000 0.000000 -6.991405 1.810926 8.705663 -1.118974 0.417485 -0.049478 1.235795 0.712173 -7.517669 8.508261 0.591192 -4.182416 3.017967 0.538734 -4.989923 0.000000 0.000000 0.000000 -0.000646 8.145710 19.157187 -81.692921 1.896967 -7.417549 -149.222843 -88.794679 179.262151 13.700836 -15.645235 -0.399000 13.967440 -15.471425 0.000000 0.000000 0.000000 0.000000 0.000000 0.000000 0.000000 -7.332026 -18.851797 -2.301275 66.319840 20.452551 2.428324 53.303513 13.979194 -0.034079 0.290309 2.429157 -0.017059 0.288759 2.429715 -0.000000 0.000000 0.000000 0.000000 0.000000 0.000000 0.000000 
-1.755201 17.595131 25.706463 4.424598 -9.588980 8.810932 3.482813 2.746342 0.257637 -33.368768 -18.028475 2.961958 18.412583 -23.525593 -10.548248 -4.130504 -3.026939 52.127686 0.000000 0.000000 0.000000 6.729024 -1.185886 -2.178577 5.148676 4.992577 -3.678854 -0.142404 -21.160450 53.082478 7.783105 -6.457976 -5.891948 0.000000 0.000000 0.000000 -7.008162 1.770289 8.691198 -1.149552 0.352650 0.112644 0.914947 0.685188 -8.973986 8.885918 0.735616 -3.057923 3.374553 0.648250 -6.215315 0.000000 0.000000 0.000000 -0.133436 7.768076 19.878982 -81.621889 3.116098 -6.573843 -149.436821 -89.903214 179.610937 11.968599 -14.864130 -0.213583 12.153217 -14.744205 0.000000 0.000000 0.000000 0.000000 0.000000 0.000000 0.000000 -7.900923 -20.099740 -5.074467 67.375576 23.087129 2.326775 53.752498 1.431080 -0.018664 0.151165 0.993504 -0.009334 0.150923 0.993734 -0.000000 0.000000 0.000000 0.000000 0.000000 0.000000 0.000000 
